# xmcd
#
# Track frame offsets: 
#        150
#        27485
#        49920
#        71722
#        84337
#        106002
#        123175
#        132700
#        157510
#        176315
#        198575
#        217955
#
# Disc length: 3096 seconds
#
# Revision: 0
# Processed by: cddbd v1.4PL0 Copyright (c) Steve Scherf et al.
# Submitted via: ExactAudioCopy v0.90b4
#
DISCID=9c0c160c
DTITLE=Bluesick - live
DYEAR=1993
DGENRE=Blues
TTITLE0=You don´t love me
TTITLE1=I can´t sleep at night
TTITLE2=Cocaine
TTITLE3=Hesitation Blues
TTITLE4=Honky tonk woman
TTITLE5=Light my fire
TTITLE6=Loser Blues
TTITLE7=Dust my broom
TTITLE8=Ain´t nobody´s business
TTITLE9=Ramblin´ on my mind
TTITLE10=Messin´ with the kid
TTITLE11=Halleluja
EXTD=
EXTT0=
EXTT1=
EXTT2=
EXTT3=
EXTT4=
EXTT5=
EXTT6=
EXTT7=
EXTT8=
EXTT9=
EXTT10=
EXTT11=
PLAYORDER=
